<?xml version="1.0" encoding="UTF-8" standalone="no"?>
<!-- Created with Inkscape (http://www.inkscape.org/) -->

<svg
   xmlns:dc="http://purl.org/dc/elements/1.1/"
   xmlns:cc="http://creativecommons.org/ns#"
   xmlns:rdf="http://www.w3.org/1999/02/22-rdf-syntax-ns#"
   xmlns:svg="http://www.w3.org/2000/svg"
   xmlns="http://www.w3.org/2000/svg"
   xmlns:sodipodi="http://sodipodi.sourceforge.net/DTD/sodipodi-0.dtd"
   xmlns:inkscape="http://www.inkscape.org/namespaces/inkscape"
   width="32"
   height="32"
   id="svg3389"
   version="1.1"
   inkscape:version="0.48.5 r10040"
   sodipodi:docname="Новый документ 5">
  <defs
     id="defs3391" />
  <sodipodi:namedview
     id="base"
     pagecolor="#ffffff"
     bordercolor="#666666"
     borderopacity="1.0"
     inkscape:pageopacity="0"
     inkscape:pageshadow="2"
     inkscape:zoom="7.9195959"
     inkscape:cx="15.897494"
     inkscape:cy="13.243835"
     inkscape:document-units="px"
     inkscape:current-layer="layer1"
     showgrid="false"
     showborder="true"
     borderlayer="false"
     inkscape:window-width="631"
     inkscape:window-height="505"
     inkscape:window-x="757"
     inkscape:window-y="302"
     inkscape:window-maximized="0" />
  <metadata
     id="metadata3394">
    <rdf:RDF>
      <cc:Work
         rdf:about="">
        <dc:format>image/svg+xml</dc:format>
        <dc:type
           rdf:resource="http://purl.org/dc/dcmitype/StillImage" />
        <dc:title></dc:title>
      </cc:Work>
    </rdf:RDF>
  </metadata>
  <g
     inkscape:label="Layer 1"
     inkscape:groupmode="layer"
     id="layer1"
     transform="translate(0,-1020.3622)">
    <path
       inkscape:connector-curvature="0"
       d="m 15.795692,1021.8535 c -7.9798937,0 -14.4498588,6.5927 -14.4498588,14.7255 0,6.5057 4.1403186,12.0242 9.8828218,13.9722 0.723029,0.1348 0.986513,-0.32 0.986513,-0.7102 0,-0.3493 -0.0125,-1.2757 -0.01953,-2.5042 -4.0196662,0.8896 -4.8677798,-1.9744 -4.8677798,-1.9744 -0.6573774,-1.7001 -1.6048524,-2.153 -1.6048524,-2.153 -1.3120893,-0.9139 0.099358,-0.896 0.099358,-0.896 1.4504842,0.1056 2.2134321,1.5179 2.2134321,1.5179 1.2890247,2.2499 3.3826941,1.6 4.2059671,1.224 0.131294,-0.9519 0.503897,-1.601 0.917307,-1.9687 -3.2088107,-0.3717 -6.5826329,-1.6354 -6.5826329,-7.2781 0,-1.6069 0.5633406,-2.9214 1.4877453,-3.9509 -0.1490372,-0.3724 -0.6449544,-1.8694 0.1410571,-3.8972 0,0 1.2136175,-0.3958 3.9744185,1.5098 1.152408,-0.3265 2.389091,-0.4899 3.617789,-0.4955 1.226929,0 2.463607,0.169 3.617791,0.4955 2.759024,-1.9056 3.969984,-1.5098 3.969984,-1.5098 0.788673,2.0278 0.292755,3.5248 0.143723,3.8972 0.926181,1.0295 1.485972,2.344 1.485972,3.9509 0,5.6571 -3.379147,6.9019 -6.598603,7.2663 0.518983,0.4547 0.981182,1.3531 0.981182,2.7273 0,1.9678 -0.01775,3.5559 -0.01775,4.0389 0,0.3939 0.259936,0.8522 0.993608,0.7084 5.73807,-1.9515 9.874836,-7.4666 9.874836,-13.9704 0,-8.1328 -6.470854,-14.7255 -14.452518,-14.7255"
       style="fill:#1b1817;fill-opacity:1;fill-rule:evenodd;stroke:none"
       id="path24" />
  </g>
</svg>
