<?xml version="1.0" encoding="UTF-8" standalone="no"?>
<svg
   xmlns:dc="http://purl.org/dc/elements/1.1/"
   xmlns:cc="http://creativecommons.org/ns#"
   xmlns:rdf="http://www.w3.org/1999/02/22-rdf-syntax-ns#"
   xmlns:svg="http://www.w3.org/2000/svg"
   xmlns="http://www.w3.org/2000/svg"
   xmlns:sodipodi="http://sodipodi.sourceforge.net/DTD/sodipodi-0.dtd"
   xmlns:inkscape="http://www.inkscape.org/namespaces/inkscape"
   version="1.1"
   id="Layer_1"
   x="0px"
   y="0px"
   width="32"
   height="32"
   viewBox="0 0 32 32"
   enable-background="new 0 0 50 50"
   xml:space="preserve"
   inkscape:version="0.48.5 r10040"
   sodipodi:docname="tweet.svg"><metadata
     id="metadata10"><rdf:RDF><cc:Work
         rdf:about=""><dc:format>image/svg+xml</dc:format><dc:type
           rdf:resource="http://purl.org/dc/dcmitype/StillImage" /><dc:title></dc:title></cc:Work></rdf:RDF></metadata><defs
     id="defs8" /><sodipodi:namedview
     pagecolor="#ffffff"
     bordercolor="#666666"
     borderopacity="1"
     objecttolerance="10"
     gridtolerance="10"
     guidetolerance="10"
     inkscape:pageopacity="0"
     inkscape:pageshadow="2"
     inkscape:window-width="640"
     inkscape:window-height="480"
     id="namedview6"
     showgrid="false"
     inkscape:zoom="4.72"
     inkscape:cx="21.292373"
     inkscape:cy="25"
     inkscape:window-x="111"
     inkscape:window-y="279"
     inkscape:window-maximized="0"
     inkscape:current-layer="Layer_1" /><path
     style="fill:#000000;fill-opacity:1"
     d="M 6.691685,29.145446 C 5.0704759,28.814848 3.0343048,28.065244 1.6475148,27.288462 L 0.52966103,26.662316 1.6977594,26.653382 C 4.1183747,26.63486 6.6224265,25.819406 8.5402207,24.425093 L 9.6270481,23.634925 8.5610976,23.402137 C 6.6472088,22.984173 4.917155,21.644434 4.0696519,19.924006 l -0.362801,-0.736487 1.30066,-0.116645 C 6.3780323,18.947962 6.7255604,18.814069 6.1865381,18.616626 4.2391773,17.90331 2.9813597,16.843956 2.1868392,15.24802 1.7294109,14.329194 1.2501139,12.277676 1.4945766,12.284952 c 0.036822,0.0011 0.4468508,0.125379 0.9111751,0.276183 0.464324,0.150805 1.0692543,0.274188 1.3442891,0.274188 l 0.500063,0 -0.8792969,-0.916939 C 2.8771315,11.403578 2.2875848,10.535538 2.0265181,9.9390789 1.6222562,9.0154616 1.5619677,8.6482639 1.5649071,7.127557 1.5673297,5.8713053 1.6523714,5.1769184 1.8666726,4.6633979 L 2.1650569,3.9483941 3.5830661,5.4010629 C 6.7198939,8.6145598 10.194227,10.330614 14.649015,10.866795 l 0.705106,0.08486 0.0056,-1.4977782 c 0.0077,-2.0090914 0.466017,-3.2844803 1.688788,-4.6984833 1.328937,-1.5367705 2.600512,-2.1306768 4.54833,-2.1243583 1.224474,0.004 1.629338,0.087009 2.493673,0.5114431 0.567551,0.2786842 1.267617,0.7506469 1.55573,1.0488045 l 0.523837,0.5421039 0.957013,-0.2668712 c 0.526357,-0.1467794 1.393434,-0.4735068 1.926839,-0.7260627 0.533405,-0.2525551 0.969828,-0.3971175 0.969828,-0.3212505 0,0.3567704 -1.059033,1.8622918 -1.819201,2.5861802 L 27.35812,6.8114326 28.132017,6.6881168 c 0.425646,-0.067824 1.146514,-0.2537023 1.601933,-0.4130632 0.455419,-0.1593615 0.876787,-0.2375546 0.936371,-0.1737617 0.05959,0.063788 -0.525852,0.7832099 -1.300972,1.5987047 -1.364668,1.4357528 -1.409341,1.5099494 -1.410324,2.3423844 -0.0017,1.492411 -0.490117,4.408531 -1.024003,6.1146 -0.981189,3.13546 -2.314948,5.453576 -4.457706,7.747644 -2.345038,2.510634 -4.99374,4.120294 -8.189486,4.976884 -1.798608,0.482103 -5.8380273,0.622453 -7.5961758,0.263931 l 0,0 z"
     id="path3003"
     inkscape:connector-curvature="0" /></svg>